<svg xmlns="http://www.w3.org/2000/svg" viewBox="0 0 320 420" role="img" aria-label="Cat persona card">
  <defs>
    <linearGradient id="bg" x1="0" y1="0" x2="1" y2="1">
      <stop offset="0%" stop-color="#f2f7f4"/>
      <stop offset="100%" stop-color="#dfe9e4"/>
    </linearGradient>
    <radialGradient id="glow" cx="30%" cy="18%" r="72%">
      <stop offset="0%" stop-color="#ffffff" stop-opacity=".9"/>
      <stop offset="100%" stop-color="#99aeb0" stop-opacity=".16"/>
    </radialGradient>
    <linearGradient id="fur" x1="0" y1="0" x2="0" y2="1">
      <stop offset="0%" stop-color="#262932"/>
      <stop offset="100%" stop-color="#151820"/>
    </linearGradient>
    <linearGradient id="smoke" x1="0" y1="0" x2="0" y2="1">
      <stop offset="0%" stop-color="#646d7a"/>
      <stop offset="100%" stop-color="#444a55"/>
    </linearGradient>
    <filter id="shadow" x="-20%" y="-20%" width="140%" height="140%">
      <feDropShadow dx="0" dy="14" stdDeviation="15" flood-color="#404851" flood-opacity=".25"/>
    </filter>
  </defs>
  <rect width="320" height="420" rx="36" fill="url(#bg)"/>
  <circle cx="50" cy="68" r="118" fill="url(#glow)"/>
  <circle cx="282" cy="92" r="94" fill="#ffffff" opacity=".24"/>
  <path d="M0 324c48-30 87-39 129-31 33 6 64 24 96 27 38 4 66-9 95-34v134H0Z" fill="#d7e1dc" opacity=".86"/>
  <g filter="url(#shadow)">
    <path d="M114 286c0-18 16-30 46-30h0c30 0 46 12 46 30v34H114Z" fill="#23262f"/>
    <path d="M125 299c7 8 18 13 35 13s28-5 35-13c4-5 7-11 8-18H117c1 7 4 13 8 18Z" fill="#c8d1cd"/>
    <path d="M136 274c0-31 10-56 24-56h0c14 0 24 25 24 56" fill="#2f333d"/>
    <path d="M160 150c-24 0-44 20-44 44v24c0 24 20 44 44 44s44-20 44-44v-24c0-24-20-44-44-44Z" fill="url(#fur)"/>
    <path d="M126 120 112 72l29 30Z" fill="#343843"/>
    <path d="M194 120 208 72l-29 30Z" fill="#343843"/>
    <path d="M133 120 125 86l17 17Z" fill="#7a838d"/>
    <path d="M187 120 195 86l-17 17Z" fill="#7a838d"/>
    <ellipse cx="147" cy="190" rx="6" ry="7" fill="#f8d75f"/>
    <ellipse cx="173" cy="190" rx="6" ry="7" fill="#f8d75f"/>
    <circle cx="147" cy="190" r="2.3" fill="#111318"/>
    <circle cx="173" cy="190" r="2.3" fill="#111318"/>
    <path d="M160 198c6 0 10 4 10 8 0 6-4 10-10 10s-10-4-10-10c0-4 4-8 10-8Z" fill="#1f232c"/>
    <path d="M160 210c-11 0-19 9-19 19 0 14 8 22 19 22s19-8 19-22c0-10-8-19-19-19Z" fill="#e3e7e5"/>
    <path d="M103 228c-17 10-28 24-32 43" fill="none" stroke="#555b67" stroke-width="12" stroke-linecap="round"/>
    <path d="M82 259c-11-1-18 1-24 8 10 7 19 10 29 10" fill="none" stroke="#8a909b" stroke-width="11" stroke-linecap="round"/>
    <path d="M136 242c8 5 16 8 24 8s16-3 24-8" fill="none" stroke="#4f5662" stroke-width="6" stroke-linecap="round"/>
  </g>
</svg>
