<svg xmlns="http://www.w3.org/2000/svg" viewBox="0 0 320 420" role="img" aria-label="Deer persona card">
  <defs>
    <linearGradient id="bg" x1="0" y1="0" x2="1" y2="1">
      <stop offset="0%" stop-color="#fff6eb"/>
      <stop offset="100%" stop-color="#eadcc4"/>
    </linearGradient>
    <radialGradient id="glow" cx="30%" cy="18%" r="72%">
      <stop offset="0%" stop-color="#fffdf7" stop-opacity=".92"/>
      <stop offset="100%" stop-color="#c8a36d" stop-opacity=".16"/>
    </radialGradient>
    <linearGradient id="fur" x1="0" y1="0" x2="0" y2="1">
      <stop offset="0%" stop-color="#b68962"/>
      <stop offset="100%" stop-color="#9b6f49"/>
    </linearGradient>
    <linearGradient id="cream" x1="0" y1="0" x2="0" y2="1">
      <stop offset="0%" stop-color="#fff9f1"/>
      <stop offset="100%" stop-color="#f3e5d1"/>
    </linearGradient>
    <filter id="shadow" x="-20%" y="-20%" width="140%" height="140%">
      <feDropShadow dx="0" dy="14" stdDeviation="15" flood-color="#9a7b57" flood-opacity=".24"/>
    </filter>
  </defs>
  <rect width="320" height="420" rx="36" fill="url(#bg)"/>
  <circle cx="52" cy="68" r="118" fill="url(#glow)"/>
  <circle cx="282" cy="88" r="94" fill="#ffffff" opacity=".26"/>
  <path d="M0 328c44-26 84-33 126-24 32 7 64 26 97 28 36 2 63-10 97-33v121H0Z" fill="#e4d3b5" opacity=".84"/>
  <g filter="url(#shadow)">
    <path d="M114 286c0-18 16-30 46-30h0c30 0 46 12 46 30v34H114Z" fill="#aa7b52"/>
    <path d="M125 299c7 8 18 13 35 13s28-5 35-13c4-5 7-11 8-18H117c1 7 4 13 8 18Z" fill="#eadcc7"/>
    <path d="M136 274c0-31 10-56 24-56h0c14 0 24 25 24 56" fill="#b38660"/>
    <path d="M160 150c-24 0-44 20-44 44v24c0 24 20 44 44 44s44-20 44-44v-24c0-24-20-44-44-44Z" fill="url(#fur)"/>
    <path d="M123 116 116 72 98 53 102 98" fill="#7f5b3e"/>
    <path d="M197 116 204 72 222 53 218 98" fill="#7f5b3e"/>
    <path d="M126 119 123 84 111 70 114 104" fill="#9f7756"/>
    <path d="M194 119 197 84 209 70 206 104" fill="#9f7756"/>
    <ellipse cx="147" cy="190" rx="5" ry="6" fill="#3a291d"/>
    <ellipse cx="173" cy="190" rx="5" ry="6" fill="#3a291d"/>
    <path d="M160 198c6 0 10 4 10 8 0 6-4 10-10 10s-10-4-10-10c0-4 4-8 10-8Z" fill="#5f412d"/>
    <path d="M160 210c-11 0-19 9-19 19 0 14 8 22 19 22s19-8 19-22c0-10-8-19-19-19Z" fill="url(#cream)"/>
    <path d="M118 230c-16 10-25 23-29 41" fill="none" stroke="#b48961" stroke-width="12" stroke-linecap="round"/>
    <path d="M139 238c7 4 14 6 21 6s14-2 21-6" fill="none" stroke="#d7c0a3" stroke-width="6" stroke-linecap="round"/>
    <circle cx="238" cy="264" r="3.8" fill="#f6f0e5"/>
    <circle cx="226" cy="256" r="3.8" fill="#f6f0e5"/>
    <circle cx="214" cy="248" r="3.8" fill="#f6f0e5"/>
  </g>
</svg>
