<svg xmlns="http://www.w3.org/2000/svg" viewBox="0 0 320 420" role="img" aria-label="Fox persona card">
  <defs>
    <linearGradient id="bg" x1="0" y1="0" x2="1" y2="1">
      <stop offset="0%" stop-color="#fff3e8"/>
      <stop offset="100%" stop-color="#f3dfcc"/>
    </linearGradient>
    <radialGradient id="glow" cx="30%" cy="20%" r="72%">
      <stop offset="0%" stop-color="#fff3d8" stop-opacity=".9"/>
      <stop offset="100%" stop-color="#f2a55d" stop-opacity=".14"/>
    </radialGradient>
    <linearGradient id="fur" x1="0" y1="0" x2="0" y2="1">
      <stop offset="0%" stop-color="#d47b47"/>
      <stop offset="100%" stop-color="#bb6238"/>
    </linearGradient>
    <linearGradient id="cream" x1="0" y1="0" x2="0" y2="1">
      <stop offset="0%" stop-color="#fff5ea"/>
      <stop offset="100%" stop-color="#f5dcc6"/>
    </linearGradient>
    <filter id="shadow" x="-20%" y="-20%" width="140%" height="140%">
      <feDropShadow dx="0" dy="14" stdDeviation="15" flood-color="#a96f48" flood-opacity=".24"/>
    </filter>
  </defs>
  <rect width="320" height="420" rx="36" fill="url(#bg)"/>
  <circle cx="46" cy="74" r="118" fill="url(#glow)"/>
  <circle cx="278" cy="96" r="96" fill="#ffffff" opacity=".24"/>
  <path d="M0 328c54-22 93-24 135-12 32 9 58 28 96 28 34 0 61-13 89-32v128H0Z" fill="#efd8c0" opacity=".78"/>
  <g filter="url(#shadow)">
    <path d="M114 286c0-18 16-30 46-30h0c30 0 46 12 46 30v34H114Z" fill="#bf6539"/>
    <path d="M126 300c7 8 18 13 34 13s27-5 34-13c4-5 7-11 8-18H118c1 7 4 13 8 18Z" fill="#f1d9c5"/>
    <path d="M138 274c0-31 10-56 22-56h0c12 0 22 25 22 56" fill="#d77a45"/>
    <path d="M160 152c-23 0-42 19-42 42v25c0 23 19 42 42 42s42-19 42-42v-25c0-23-19-42-42-42Z" fill="url(#fur)"/>
    <path d="M125 118 110 70l32 30Z" fill="#c96639"/>
    <path d="M195 118 210 70l-32 30Z" fill="#c96639"/>
    <path d="M132 118 121 82l20 19Z" fill="#f4dcc7"/>
    <path d="M188 118 199 82l-20 19Z" fill="#f4dcc7"/>
    <circle cx="147" cy="190" r="5" fill="#2e211c"/>
    <circle cx="173" cy="190" r="5" fill="#2e211c"/>
    <path d="M160 198c6 0 11 4 11 9 0 6-5 11-11 11s-11-5-11-11c0-5 5-9 11-9Z" fill="#f2e8df"/>
    <path d="M160 208c-10 0-18 8-18 18 0 13 7 21 18 21s18-8 18-21c0-10-8-18-18-18Z" fill="#fff8f1"/>
    <path d="M201 228c20 10 31 24 34 43" fill="none" stroke="#d88a59" stroke-width="12" stroke-linecap="round"/>
    <path d="M226 262c12-2 20 1 26 10-11 6-20 9-29 8" fill="none" stroke="#fff8ef" stroke-width="12" stroke-linecap="round"/>
    <path d="M136 242c8 5 16 8 24 8s16-3 24-8" fill="none" stroke="#eac5ad" stroke-width="6" stroke-linecap="round"/>
  </g>
</svg>
