<svg xmlns="http://www.w3.org/2000/svg" viewBox="0 0 320 420" role="img" aria-label="Panther persona card">
  <defs>
    <linearGradient id="bg" x1="0" y1="0" x2="1" y2="1">
      <stop offset="0%" stop-color="#111826"/>
      <stop offset="100%" stop-color="#1f2a3a"/>
    </linearGradient>
    <radialGradient id="glow" cx="28%" cy="18%" r="72%">
      <stop offset="0%" stop-color="#6d89b7" stop-opacity=".34"/>
      <stop offset="100%" stop-color="#0a0f18" stop-opacity="0"/>
    </radialGradient>
    <linearGradient id="fur" x1="0" y1="0" x2="0" y2="1">
      <stop offset="0%" stop-color="#1b1f28"/>
      <stop offset="100%" stop-color="#090b10"/>
    </linearGradient>
    <linearGradient id="shine" x1="0" y1="0" x2="1" y2="1">
      <stop offset="0%" stop-color="#3a4253"/>
      <stop offset="100%" stop-color="#1d222d"/>
    </linearGradient>
    <filter id="shadow" x="-20%" y="-20%" width="140%" height="140%">
      <feDropShadow dx="0" dy="14" stdDeviation="15" flood-color="#000000" flood-opacity=".34"/>
    </filter>
  </defs>
  <rect width="320" height="420" rx="36" fill="url(#bg)"/>
  <circle cx="52" cy="68" r="118" fill="url(#glow)"/>
  <circle cx="284" cy="90" r="94" fill="#ffffff" opacity=".06"/>
  <path d="M0 324c50-28 91-37 131-30 32 5 62 24 94 28 39 4 67-8 95-34v132H0Z" fill="#0d121c" opacity=".88"/>
  <g filter="url(#shadow)">
    <path d="M114 286c0-18 16-30 46-30h0c30 0 46 12 46 30v34H114Z" fill="#151923"/>
    <path d="M125 299c7 8 18 13 35 13s28-5 35-13c4-5 7-11 8-18H117c1 7 4 13 8 18Z" fill="#2b3240"/>
    <path d="M136 274c0-31 10-56 24-56h0c14 0 24 25 24 56" fill="#1a1f2a"/>
    <path d="M160 150c-24 0-44 20-44 44v24c0 24 20 44 44 44s44-20 44-44v-24c0-24-20-44-44-44Z" fill="url(#fur)"/>
    <path d="M126 120 112 72l28 24Z" fill="#2b313d"/>
    <path d="M194 120 208 72l-28 24Z" fill="#2b313d"/>
    <path d="M133 121 126 89l15 13Z" fill="#495160"/>
    <path d="M187 121 194 89l-15 13Z" fill="#495160"/>
    <ellipse cx="147" cy="190" rx="6" ry="7" fill="#f3b94d"/>
    <ellipse cx="173" cy="190" rx="6" ry="7" fill="#f3b94d"/>
    <circle cx="147" cy="190" r="2.3" fill="#111318"/>
    <circle cx="173" cy="190" r="2.3" fill="#111318"/>
    <path d="M160 198c6 0 10 4 10 8 0 6-4 10-10 10s-10-4-10-10c0-4 4-8 10-8Z" fill="#0f1218"/>
    <path d="M160 210c-11 0-19 9-19 19 0 14 8 22 19 22s19-8 19-22c0-10-8-19-19-19Z" fill="url(#shine)"/>
    <path d="M115 228c-17 10-27 24-31 43" fill="none" stroke="#303744" stroke-width="12" stroke-linecap="round"/>
    <path d="M92 262c-10-2-17 1-23 8 10 7 19 10 28 10" fill="none" stroke="#596171" stroke-width="11" stroke-linecap="round"/>
    <path d="M136 242c8 5 16 8 24 8s16-3 24-8" fill="none" stroke="#434b59" stroke-width="6" stroke-linecap="round"/>
    <circle cx="100" cy="106" r="4" fill="#2b3240" opacity=".65"/>
    <circle cx="236" cy="274" r="4" fill="#2b3240" opacity=".55"/>
  </g>
</svg>
