<svg xmlns="http://www.w3.org/2000/svg" viewBox="0 0 320 420" role="img" aria-label="Rabbit persona card">
  <defs>
    <linearGradient id="bg" x1="0" y1="0" x2="1" y2="1">
      <stop offset="0%" stop-color="#fff7f3"/>
      <stop offset="100%" stop-color="#f2e2e2"/>
    </linearGradient>
    <radialGradient id="glow" cx="30%" cy="22%" r="70%">
      <stop offset="0%" stop-color="#ffffff" stop-opacity=".92"/>
      <stop offset="100%" stop-color="#f7ccd6" stop-opacity=".18"/>
    </radialGradient>
    <linearGradient id="fur" x1="0" y1="0" x2="0" y2="1">
      <stop offset="0%" stop-color="#fffefd"/>
      <stop offset="100%" stop-color="#efe3e0"/>
    </linearGradient>
    <linearGradient id="accent" x1="0" y1="0" x2="1" y2="1">
      <stop offset="0%" stop-color="#f7d0db"/>
      <stop offset="100%" stop-color="#e9a8b8"/>
    </linearGradient>
    <filter id="shadow" x="-20%" y="-20%" width="140%" height="140%">
      <feDropShadow dx="0" dy="14" stdDeviation="15" flood-color="#b58a97" flood-opacity=".22"/>
    </filter>
  </defs>
  <rect width="320" height="420" rx="36" fill="url(#bg)"/>
  <circle cx="52" cy="68" r="120" fill="url(#glow)"/>
  <circle cx="282" cy="86" r="92" fill="#ffffff" opacity=".28"/>
  <path d="M0 322c42-34 82-44 128-33 33 8 64 28 98 26 36-2 63-16 94-40v145H0Z" fill="#f8ecea" opacity=".72"/>
  <g filter="url(#shadow)">
    <path d="M112 286c0-18 16-30 48-30h0c32 0 48 12 48 30v34H112Z" fill="#fffaf9"/>
    <path d="M124 298c8 9 20 14 36 14s28-5 36-14c5-6 8-13 8-20H116c0 7 3 14 8 20Z" fill="#f4dfe3"/>
    <path d="M138 274c0-31 10-56 22-56h0c12 0 22 25 22 56" fill="#fffdfd"/>
    <path d="M162 148c-21 0-38 17-38 38v32c0 22 17 40 38 40s38-18 38-40v-32c0-21-17-38-38-38Z" fill="url(#fur)"/>
    <ellipse cx="151" cy="140" rx="12" ry="42" fill="#efe3e0"/>
    <ellipse cx="169" cy="140" rx="12" ry="42" fill="#efe3e0"/>
    <ellipse cx="151" cy="140" rx="6" ry="28" fill="url(#accent)"/>
    <ellipse cx="169" cy="140" rx="6" ry="28" fill="url(#accent)"/>
    <circle cx="148" cy="190" r="5" fill="#5b4c4e"/>
    <circle cx="176" cy="190" r="5" fill="#5b4c4e"/>
    <path d="M162 197c6 0 10 4 10 8 0 6-4 10-10 10s-10-4-10-10c0-4 4-8 10-8Z" fill="#e4a1b1"/>
    <path d="M162 210c-10 0-18 8-18 18 0 16 8 25 18 25s18-9 18-25c0-10-8-18-18-18Z" fill="#fff7f6" opacity=".88"/>
    <path d="M108 252c-13 8-22 19-27 35" fill="none" stroke="#c9a4ad" stroke-width="10" stroke-linecap="round"/>
    <circle cx="218" cy="263" r="20" fill="#fff6f4"/>
    <circle cx="218" cy="263" r="10" fill="#f3c3cf"/>
    <path d="M135 244c7 6 16 10 27 10s20-4 27-10" fill="none" stroke="#e9b7c3" stroke-width="6" stroke-linecap="round"/>
  </g>
</svg>
