<svg xmlns="http://www.w3.org/2000/svg" viewBox="0 0 320 420" role="img" aria-label="Wolf persona card">
  <defs>
    <linearGradient id="bg" x1="0" y1="0" x2="1" y2="1">
      <stop offset="0%" stop-color="#f0f3f8"/>
      <stop offset="100%" stop-color="#dfe6ef"/>
    </linearGradient>
    <radialGradient id="glow" cx="28%" cy="18%" r="72%">
      <stop offset="0%" stop-color="#ffffff" stop-opacity=".92"/>
      <stop offset="100%" stop-color="#9fb0c8" stop-opacity=".16"/>
    </radialGradient>
    <linearGradient id="fur" x1="0" y1="0" x2="0" y2="1">
      <stop offset="0%" stop-color="#7e8797"/>
      <stop offset="100%" stop-color="#66707f"/>
    </linearGradient>
    <linearGradient id="muzzle" x1="0" y1="0" x2="0" y2="1">
      <stop offset="0%" stop-color="#f9fbfe"/>
      <stop offset="100%" stop-color="#e8edf4"/>
    </linearGradient>
    <filter id="shadow" x="-20%" y="-20%" width="140%" height="140%">
      <feDropShadow dx="0" dy="14" stdDeviation="15" flood-color="#506070" flood-opacity=".26"/>
    </filter>
  </defs>
  <rect width="320" height="420" rx="36" fill="url(#bg)"/>
  <circle cx="50" cy="68" r="118" fill="url(#glow)"/>
  <circle cx="280" cy="84" r="94" fill="#ffffff" opacity=".26"/>
  <path d="M0 326c44-29 84-37 126-28 34 7 66 27 101 27 33 0 64-12 93-34v129H0Z" fill="#d5dbe3" opacity=".84"/>
  <g filter="url(#shadow)">
    <path d="M114 286c0-18 16-30 46-30h0c30 0 46 12 46 30v34H114Z" fill="#6c7381"/>
    <path d="M125 299c7 8 18 13 35 13s28-5 35-13c4-5 7-11 8-18H117c1 7 4 13 8 18Z" fill="#dfe5ee"/>
    <path d="M136 274c0-31 10-56 24-56h0c14 0 24 25 24 56" fill="#757d8b"/>
    <path d="M160 152c-24 0-44 20-44 44v24c0 24 20 44 44 44s44-20 44-44v-24c0-24-20-44-44-44Z" fill="url(#fur)"/>
    <path d="M123 116 112 66l31 28Z" fill="#919aaa"/>
    <path d="M197 116 208 66l-31 28Z" fill="#919aaa"/>
    <path d="M131 118 124 83l19 16Z" fill="#c3cad5"/>
    <path d="M189 118 196 83l-19 16Z" fill="#c3cad5"/>
    <circle cx="146" cy="190" r="5" fill="#151820"/>
    <circle cx="174" cy="190" r="5" fill="#151820"/>
    <path d="M160 198c6 0 10 4 10 8 0 6-4 10-10 10s-10-4-10-10c0-4 4-8 10-8Z" fill="#2b3039"/>
    <path d="M160 210c-11 0-19 9-19 19 0 14 8 22 19 22s19-8 19-22c0-10-8-19-19-19Z" fill="url(#muzzle)"/>
    <path d="M115 228c-18 10-28 24-31 43" fill="none" stroke="#8f98a6" stroke-width="12" stroke-linecap="round"/>
    <path d="M95 263c-10-2-17 1-23 8 10 7 19 10 28 10" fill="none" stroke="#c4cad3" stroke-width="11" stroke-linecap="round"/>
    <path d="M136 242c8 5 16 8 24 8s16-3 24-8" fill="none" stroke="#b2b9c6" stroke-width="6" stroke-linecap="round"/>
  </g>
</svg>
